<?xml version="1.0" encoding="UTF-8"?>
<svg version="1.1" xmlns="http://www.w3.org/2000/svg" width="120" height="120">
<path d="M0 0 C4.1367296 3.79991863 6.80309436 7.16380139 7.203125 12.92578125 C7.36081474 24.31886518 7.36081474 24.31886518 4 29 C3.2575 29.680625 2.515 30.36125 1.75 31.0625 C1.1725 31.701875 0.595 32.34125 0 33 C0.29502394 34.67387268 0.63912515 36.3390791 1 38 C1.86635146 52.14567308 0.42630927 60.61386342 -8.94140625 71.671875 C-15.621828 79.09299821 -22.86783181 86.01778844 -30 93 C-28.7315625 92.7834375 -28.7315625 92.7834375 -27.4375 92.5625 C-11.05128205 89.88111888 -11.05128205 89.88111888 -6.9375 92.125 C-5.44533717 95.10932566 -5.98158245 96.88109626 -7 100 C-11.02460398 103.98040425 -15.35806291 105.42079457 -20.6328125 107.05078125 C-21.4652951 107.31384567 -22.29777771 107.5769101 -23.15548706 107.84794617 C-24.91369207 108.3990028 -26.67376775 108.94412189 -28.43554688 109.48364258 C-31.10277475 110.30565044 -33.75796675 111.16038359 -36.4140625 112.01757812 C-53.01853494 117.24769066 -53.01853494 117.24769066 -62 115 C-62.61568848 114.85194916 -63.23137695 114.70389832 -63.86572266 114.55136108 C-69.00860732 113.30232034 -74.09732868 111.88405285 -79.1875 110.4375 C-80.72696989 110.0075901 -82.26668215 109.57854711 -83.80664062 109.15039062 C-87.54062687 108.11022322 -91.2711474 107.0584163 -95 106 C-95.33 106.66 -95.66 107.32 -96 108 C-101.61 108 -107.22 108 -113 108 C-113 96.78 -113 85.56 -113 74 C-107.39 74 -101.78 74 -96 74 C-96 74.99 -96 75.98 -96 77 C-92.7 76.01 -89.4 75.02 -86 74 C-87.0725 72.845 -88.145 71.69 -89.25 70.5 C-97.3881138 61.22518609 -98.70425583 52.00775458 -98.17480469 40.01123047 C-97.49461147 32.1852085 -92.49330539 26.25823151 -87 21 C-81.06813793 16.7235413 -75.12927973 16.43301752 -68 17 C-61.1221357 18.33704776 -56.35470306 21.6508181 -51 26 C-50.01 26.66 -49.02 27.32 -48 28 C-47.23816406 27.29423828 -47.23816406 27.29423828 -46.4609375 26.57421875 C-40.5424864 21.22101298 -40.5424864 21.22101298 -36.625 19.625 C-33.87221503 18.30470145 -33.87221503 18.30470145 -33.328125 16.03515625 C-33.02279165 14.45321362 -32.73934312 12.86690888 -32.4765625 11.27734375 C-31.21790729 5.26262256 -26.79476783 1.45223284 -22 -2 C-14.14716728 -5.50871249 -7.14739033 -4.46225458 0 0 Z " fill="#FD646F" transform="translate(113,4)"/>
<path d="M0 0 C2.80980149 1.84209014 5.39468872 3.88392138 8 6 C8.99 6.66 9.98 7.32 11 8 C11.7425 7.154375 12.485 6.30875 13.25 5.4375 C16 3 16 3 18.0078125 3.0390625 C22.28649302 5.10289663 23.4734049 10.77624041 25 15 C26.40655375 20.12851137 27 24.66572198 27 30 C32.61 30 38.22 30 44 30 C44 31.32 44 32.64 44 34 C42.94039063 34.03738281 41.88078125 34.07476562 40.7890625 34.11328125 C39.40100576 34.17893258 38.01298651 34.24538021 36.625 34.3125 C35.57699219 34.34633789 35.57699219 34.34633789 34.5078125 34.38085938 C32.22711059 34.46984296 32.22711059 34.46984296 29 35 C27.17830507 37.73254239 26.4699023 39.7860899 25.62890625 42.8984375 C23.88377885 48.72998123 21.84406905 54.2359828 18 59 C17.34 58.01 16.68 57.02 16 56 C4.01397369 52.03727294 -6.89833993 52.44243267 -19 55 C-22.625 55.6875 -22.625 55.6875 -26 55 C-32.3939342 49.64553337 -36.38569724 42.84290827 -39 35 C-39.77511323 22.97939155 -39.47415023 14.21226174 -31.5625 4.625 C-23.05845136 -4.51503518 -11.06501683 -5.39320065 0 0 Z " fill="#FC8087" transform="translate(54,24)"/>
<path d="M0 0 C2.19062249 2.27260005 2.9060858 3.44993109 3.4375 6.5625 C3 9 3 9 1.5 10.8125 C-4.10427054 13.4745285 -11.02100026 11.85999844 -16.99609375 11.12109375 C-17.65738281 11.08113281 -18.31867187 11.04117188 -19 11 C-20.29633621 12.06645115 -20.29633621 12.06645115 -20.0625 14.5625 C-20.041875 15.366875 -20.02125 16.17125 -20 17 C-6.31889494 21.07522279 3.52049863 21.69132598 17.328125 17.97265625 C30.98448502 14.35517365 30.98448502 14.35517365 36.0625 17.125 C37.55466283 20.10932566 37.01841755 21.88109626 36 25 C31.97539602 28.98040425 27.64193709 30.42079457 22.3671875 32.05078125 C21.11846359 32.44537788 21.11846359 32.44537788 19.84451294 32.84794617 C18.08630793 33.3990028 16.32623225 33.94412189 14.56445312 34.48364258 C11.89722525 35.30565044 9.24203325 36.16038359 6.5859375 37.01757812 C-10.01853494 42.24769066 -10.01853494 42.24769066 -19 40 C-19.61568848 39.85194916 -20.23137695 39.70389832 -20.86572266 39.55136108 C-26.00860732 38.30232034 -31.09732868 36.88405285 -36.1875 35.4375 C-37.72696989 35.0075901 -39.26668215 34.57854711 -40.80664062 34.15039062 C-44.54062687 33.11022322 -48.2711474 32.0584163 -52 31 C-52.33 31.66 -52.66 32.32 -53 33 C-58.61 33 -64.22 33 -70 33 C-70 21.78 -70 10.56 -70 -1 C-64.39 -1 -58.78 -1 -53 -1 C-53 -0.01 -53 0.98 -53 2 C-52.01 1.71125 -51.02 1.4225 -50 1.125 C-44.9476041 -0.15627306 -39.80545691 -0.7158666 -34.63671875 -1.30224609 C-11.29686432 -3.9836311 -11.29686432 -3.9836311 0 0 Z " fill="#FDD0A2" transform="translate(70,79)"/>
<path d="M0 0 C4.1367296 3.79991863 6.80309436 7.16380139 7.203125 12.92578125 C7.30698617 20.42975079 6.98626131 25.12892052 2.3125 31.1875 C-3.31160468 35.59558205 -9.33001688 36.6386144 -16.3203125 36.40625 C-21.62363628 35.60224756 -25.25397101 33.19886444 -28.56640625 29.02734375 C-32.24159072 23.42556686 -33.56406315 18.76875785 -33 12 C-31.01237675 5.80963119 -27.37762877 1.56943045 -22 -2 C-14.20463347 -5.57287632 -7.10878205 -4.43815068 0 0 Z " fill="#F7EDEB" transform="translate(113,4)"/>
<path d="M0 0 C4.1367296 3.79991863 6.80309436 7.16380139 7.203125 12.92578125 C7.30698617 20.42975079 6.98626131 25.12892052 2.3125 31.1875 C-3.60226199 35.82339453 -9.41451823 36.33113711 -16.6796875 36.30078125 C-19 36 -19 36 -21 34 C-19.906875 33.4225 -18.81375 32.845 -17.6875 32.25 C-14.68597274 30.50972056 -12.62513875 29.15999201 -11 26 C-10.27518916 22.34725531 -10.27518916 22.34725531 -10 19 C-8.35 18.67 -6.7 18.34 -5 18 C-4.67 17.01 -4.34 16.02 -4 15 C-5.32 15 -6.64 15 -8 15 C-8.37125 13.824375 -8.7425 12.64875 -9.125 11.4375 C-11.3542482 5.45037625 -15.53904446 1.42112558 -20 -3 C-12.71039429 -5.33267383 -6.35042598 -3.96469426 0 0 Z " fill="#D7DCE9" transform="translate(113,4)"/>
<path d="M0 0 C5.61 0 11.22 0 17 0 C17 11.22 17 22.44 17 34 C11.39 34 5.78 34 0 34 C0 22.78 0 11.56 0 0 Z " fill="#99E5FA" transform="translate(0,78)"/>
<path d="M0 0 C0.66 0 1.32 0 2 0 C1.75762774 3.5547932 1.55203588 5.44762906 -1.01123047 8.01245117 C-4.735924 10.48939367 -8.38232701 11.73730947 -12.6328125 13.05078125 C-13.4652951 13.31384567 -14.29777771 13.5769101 -15.15548706 13.84794617 C-16.91369207 14.3990028 -18.67376775 14.94412189 -20.43554688 15.48364258 C-23.10277475 16.30565044 -25.75796675 17.16038359 -28.4140625 18.01757812 C-45.00019659 23.24178618 -45.00019659 23.24178618 -54 21 C-54.61333191 20.85430573 -55.22666382 20.70861145 -55.85858154 20.5585022 C-60.22497061 19.51252227 -64.5528211 18.3525189 -68.87402344 17.13427734 C-71.15290655 16.49213653 -73.43535499 15.86416917 -75.71875 15.23828125 C-77.16949301 14.83673934 -78.62002246 14.43442487 -80.0703125 14.03125 C-80.75247833 13.84268433 -81.43464417 13.65411865 -82.13748169 13.45983887 C-86.88297601 12.11702399 -86.88297601 12.11702399 -88 11 C-88.04063832 9.33382885 -88.042721 7.66611905 -88 6 C-78.82056977 7.66374717 -69.88250716 10.10965842 -60.90039062 12.609375 C-50.37302414 15.43248849 -42.96125216 15.75409958 -32.625 12.375 C-31.77301025 12.10647217 -30.92102051 11.83794434 -30.04321289 11.5612793 C-28.26212672 10.99901195 -26.48259003 10.43181419 -24.70458984 9.85986328 C-22.00497783 9.00158259 -19.2963882 8.18141564 -16.58203125 7.37109375 C-14.8670832 6.8519069 -13.15223564 6.33238796 -11.4375 5.8125 C-10.6345752 5.57515137 -9.83165039 5.33780273 -9.00439453 5.09326172 C-5.15385762 3.90188479 -2.78822471 2.83227249 0 0 Z " fill="#FEBD86" transform="translate(105,98)"/>
<path d="M0 0 C1.734375 0.06640625 1.734375 0.06640625 4 1 C5.59765336 3.30610184 6.93530589 5.48096971 8.25 7.9375 C8.61351562 8.58396484 8.97703125 9.23042969 9.3515625 9.89648438 C12 14.69055451 12 14.69055451 12 17 C12.66 17 13.32 17 14 17 C14.28875 16.05125 14.5775 15.1025 14.875 14.125 C16 11 16 11 18 9 C20.9093558 8.85482256 23.719946 8.81369204 26.625 8.875 C27.42679688 8.88402344 28.22859375 8.89304687 29.0546875 8.90234375 C31.03658523 8.92593777 33.01832981 8.96180935 35 9 C35 10.32 35 11.64 35 13 C33.98679687 12.96777344 32.97359375 12.93554688 31.9296875 12.90234375 C24.26476558 12.65379916 24.26476558 12.65379916 17.7734375 16.0703125 C16.21604569 18.51470725 16.21604569 18.51470725 15.078125 21.06640625 C14.72234375 21.70449219 14.3665625 22.34257813 14 23 C13.01 23 12.02 23 11 23 C8.03 17.72 5.06 12.44 2 7 C0.02795375 9.629395 -1.61539808 11.93105862 -3.1875 14.75 C-3.785625 15.8225 -4.38375 16.895 -5 18 C-8.25543229 17.65120368 -9.01873107 16.97866739 -11.25 14.4375 C-11.8275 13.633125 -12.405 12.82875 -13 12 C-13.34675781 12.81855469 -13.69351563 13.63710938 -14.05078125 14.48046875 C-16 17 -16 17 -19.35546875 17.48828125 C-21.25232422 17.40126953 -21.25232422 17.40126953 -23.1875 17.3125 C-24.45980469 17.26738281 -25.73210938 17.22226562 -27.04296875 17.17578125 C-28.01878906 17.11777344 -28.99460938 17.05976562 -30 17 C-30 15.68 -30 14.36 -30 13 C-29.18015625 13.00902344 -28.3603125 13.01804687 -27.515625 13.02734375 C-21.40971447 13.13377571 -21.40971447 13.13377571 -16.3125 10.375 C-15.0827337 8.24908942 -15.0827337 8.24908942 -14 5 C-11.00675737 6.0975223 -10.15389099 6.67682892 -8.75 9.625 C-8.5025 10.40875 -8.255 11.1925 -8 12 C-5.45868642 9.69716746 -3.92889705 7.32686207 -2.3125 4.3125 C-1.87550781 3.50425781 -1.43851563 2.69601563 -0.98828125 1.86328125 C-0.66214844 1.24839844 -0.33601563 0.63351563 0 0 Z " fill="#F8E8E7" transform="translate(63,45)"/>
<path d="M0 0 C0.25 2.3125 0.25 2.3125 0 5 C-1.5 6.8125 -1.5 6.8125 -4 8 C-9.37941322 8.37099402 -14.55715958 7.79082055 -19.8984375 7.12109375 C-22.05825877 6.82166051 -22.05825877 6.82166051 -24 8 C-24.042721 6.33388095 -24.04063832 4.66617115 -24 3 C-23 2 -23 2 -21.18994141 1.91821289 C-20.41827637 1.9361792 -19.64661133 1.95414551 -18.8515625 1.97265625 C-18.01109375 1.98490234 -17.170625 1.99714844 -16.3046875 2.00976562 C-14.52595717 2.04476979 -12.74730122 2.0837971 -10.96875 2.12695312 C-10.12570313 2.13791016 -9.28265625 2.14886719 -8.4140625 2.16015625 C-7.6401416 2.17699463 -6.8662207 2.19383301 -6.06884766 2.21118164 C-3.61035257 1.96022598 -2.30079199 0 0 0 Z " fill="#FEB985" transform="translate(73,83)"/>
<path d="M0 0 C0.99 0 1.98 0 3 0 C3 2.31 3 4.62 3 7 C5.31 7 7.62 7 10 7 C10 7.99 10 8.98 10 10 C7.69 10 5.38 10 3 10 C3 12.31 3 14.62 3 17 C2.01 17 1.02 17 0 17 C0 14.69 0 12.38 0 10 C-2.31 10 -4.62 10 -7 10 C-7 9.01 -7 8.02 -7 7 C-4.69 7 -2.38 7 0 7 C0 4.69 0 2.38 0 0 Z " fill="#FC8087" transform="translate(99,12)"/>
<path d="M0 0 C0.87785156 0.09796875 1.75570312 0.1959375 2.66015625 0.296875 C3.53542969 0.38453125 4.41070312 0.4721875 5.3125 0.5625 C7.72265625 1.046875 7.72265625 1.046875 10.72265625 3.046875 C9.34030747 4.08589533 7.94109834 5.10250946 6.53515625 6.109375 C5.75785156 6.67785156 4.98054688 7.24632813 4.1796875 7.83203125 C1.18562259 9.31240357 -0.15497003 9.07688084 -3.27734375 8.046875 C-4.27734375 7.046875 -4.27734375 7.046875 -4.46484375 4.609375 C-4.21838171 1.24106041 -3.47349213 0.07149555 0 0 Z " fill="#FD8387" transform="translate(53.27734375,88.953125)"/>
<path d="M0 0 C5.28 0 10.56 0 16 0 C16.33 1.65 16.66 3.3 17 5 C11.39 5 5.78 5 0 5 C0 3.35 0 1.7 0 0 Z " fill="#62DAFA" transform="translate(0,107)"/>
</svg>
